<svg xmlns="http://www.w3.org/2000/svg" width="100" height="34" viewBox="0 0 100 34">
  <path fill="#FC4C02" d="M15.4 12.9l-4.2 8.2h5l-0.8 1.6H9.6l-4.2 8.2H3.2l9.8-19.1h2.4v1.1zm4.4-1.1h2.2l7.1 11.2 3-5.8-4.1-5.4h2.2l2.9 4 2.9-4h2.2L34 16.9l3 5.8 7.1-11.2h2.2L37.9 25h-2.1l-3.3-6.3L29.2 25h-2.1l-7.3-13.2z"/>
  <path fill="#999999" d="M52.7 25v-1.1c1.2-1.4 2.3-2.7 3.3-3.9 1-1.2 1.8-2.3 2.5-3.3 0.7-1 1.2-1.9 1.6-2.7 0.4-0.8 0.5-1.6 0.5-2.3 0-0.7-0.1-1.3-0.3-1.8 -0.2-0.5-0.5-0.9-0.9-1.2 -0.4-0.3-0.8-0.5-1.3-0.7 -0.5-0.1-1-0.2-1.6-0.2 -1.3 0-2.3 0.3-3.1 1 -0.8 0.7-1.2 1.6-1.3 2.7h-2c0.1-0.9 0.3-1.7 0.7-2.4 0.4-0.7 0.8-1.3 1.4-1.8 0.6-0.5 1.3-0.9 2.1-1.1 0.8-0.3 1.7-0.4 2.7-0.4 0.9 0 1.7 0.1 2.4 0.3 0.7 0.2 1.4 0.5 1.9 1 0.5 0.4 1 1 1.3 1.7 0.3 0.7 0.5 1.5 0.5 2.4 0 0.9-0.2 1.8-0.6 2.7 -0.4 0.9-0.9 1.9-1.5 2.8 -0.6 1-1.4 2-2.2 3 -0.8 1-1.7 2.1-2.6 3.1h7.7V25H52.7z"/>
  <path fill="#999999" d="M77.6 19.5c0 1-0.2 1.8-0.5 2.5 -0.3 0.7-0.8 1.3-1.4 1.8 -0.6 0.5-1.3 0.8-2.1 1.1 -0.8 0.2-1.7 0.4-2.6 0.4 -0.7 0-1.4-0.1-2.1-0.2 -0.7-0.1-1.3-0.3-1.9-0.6 -0.6-0.3-1.1-0.7-1.5-1.1 -0.4-0.5-0.7-1-0.9-1.7h2.1c0.2 0.6 0.6 1.1 1.2 1.5 0.6 0.4 1.3 0.6 2.2 0.6 0.6 0 1.2-0.1 1.7-0.3 0.5-0.2 1-0.4 1.4-0.8 0.4-0.3 0.7-0.8 0.9-1.3 0.2-0.5 0.3-1.1 0.3-1.8 0-0.7-0.1-1.3-0.4-1.8 -0.3-0.5-0.6-0.9-1.1-1.2 -0.4-0.3-1-0.5-1.6-0.7 -0.6-0.1-1.2-0.2-1.9-0.2h-1.4v-1.5h1.4c0.6 0 1.1-0.1 1.6-0.2 0.5-0.2 0.9-0.4 1.3-0.7 0.4-0.3 0.6-0.7 0.8-1.1 0.2-0.4 0.3-0.9 0.3-1.5 0-1.1-0.3-2-1-2.6 -0.7-0.6-1.5-0.9-2.5-0.9 -0.4 0-0.8 0.1-1.2 0.2 -0.4 0.1-0.8 0.3-1.1 0.6 -0.3 0.3-0.6 0.6-0.8 1 -0.2 0.4-0.3 0.9-0.3 1.4h-2c0-0.8 0.2-1.5 0.5-2.1 0.3-0.6 0.7-1.2 1.3-1.6 0.5-0.4 1.1-0.8 1.8-1 0.7-0.2 1.4-0.3 2.1-0.3 0.8 0 1.5 0.1 2.2 0.3 0.7 0.2 1.3 0.5 1.8 0.9 0.5 0.4 0.9 0.9 1.2 1.5 0.3 0.6 0.4 1.3 0.4 2.1 0 0.9-0.2 1.7-0.7 2.3 -0.5 0.7-1.2 1.1-2.1 1.4v0.1c1.1 0.2 2 0.7 2.7 1.5C77.3 17 77.6 18.1 77.6 19.5z"/>
  <path fill="#999999" d="M96.3 25h-2.2l-7.1-11.2 -3 5.8 4.1 5.4h-2.2l-2.9-4 -2.9 4h-2.2l4.1-5.4 -3-5.8 -7.1 11.2h-2.2l8.4-13.2h2.1l3.3 6.3 3.3-6.3h2.1L96.3 25z"/>
</svg> 